<?xml version="1.0" encoding="UTF-8"?><svg id="Layer_1" xmlns="http://www.w3.org/2000/svg" viewBox="0 0 1286.37 499.38"><defs><style>.cls-1{fill:#213143;}.cls-2{fill:#58b04f;}</style></defs><g><path class="cls-2" d="M207.95,318.44c9.97,2.44,19.67,5.78,29.48,8.75,32.4,9.84,64.79,19.75,97.18,29.64,1.02,.31,2.03,.67,3.6,1.2-2.88,2.38-5.34,4.56-7.95,6.54-27.02,20.6-57.37,33.19-91.12,37.32-72.53,8.86-143.66-26.08-181.33-89.02-20.21-33.78-28.95-70.43-26.16-109.61C37.61,119.55,100.02,49.64,182.37,33.93c96.73-18.45,191.91,43.13,215.03,139.1,3.22,13.35,5.01,26.87,5.3,40.6,.05,2.46-.42,3.44-3.19,3.41-12.26-.15-24.53-.12-36.8,.01-2.81,.03-3.9-.48-3.99-3.71-1.56-58.48-39.33-110.97-93.47-130.14-83.42-29.54-172.47,21.99-188.01,108.79-11.38,63.52,22.05,127.33,80.76,154.31,21.93,10.08,44.96,13.96,68.96,12.61,1.08-.06,2.23,.07,3.43-.88-3.88-6.61-7.82-13.22-11.65-19.89-3.71-6.48-7.76-12.77-11.01-19.51l.21-.2Z"/><path class="cls-1" d="M217.82,217.03c-30.59,0-61.18-.03-91.78,.05-2.57,0-3.67-.35-3.53-3.36,1.34-28.7,13.04-52.44,34.95-70.74,15.4-12.86,33.49-20.01,53.77-21.28,27.56-1.72,51.64,6.51,71.78,25.28,18.99,17.7,29.11,39.79,30.31,65.8,.22,4.78,.8,4.28-4.06,4.29-30.48,.03-60.96,.02-91.44,.02,0-.02,0-.04,0-.06Z"/><path class="cls-2" d="M207.74,318.64c-.13-.1-.26-.21-.39-.31,.26-.28,.45-.21,.6,.12,0,0-.21,.2-.21,.2Z"/></g><path class="cls-1" d="M1192.32,303.69c2.36-7.85,4.65-15.45,6.92-23.06,3.96-13.29,7.95-26.58,11.81-39.9,.6-2.07,1.52-2.65,3.64-2.61,8.09,.14,16.18,.06,24.59,.06-2.69,7.94-5.29,15.57-7.88,23.21-8.49,25.04-17.01,50.06-25.44,75.12-.6,1.77-1.33,2.41-3.25,2.36-5.99-.14-11.99-.15-17.98,0-1.92,.05-2.65-.61-3.28-2.35-6.89-19.19-13.87-38.35-20.82-57.52-.3-.82-.64-1.63-1.22-3.1-1.58,4.37-2.96,8.1-4.3,11.85-5.78,16.27-11.57,32.53-17.3,48.82-.56,1.58-1.19,2.34-3.05,2.3-6.18-.14-12.36-.1-18.54-.02-1.63,.02-2.39-.43-2.94-2.06-10.95-32.08-21.95-64.13-33.03-96.17-.79-2.28-.18-2.53,1.92-2.49,7.19,.11,14.39,.18,21.58-.03,2.5-.07,3.47,.72,4.17,3.05,6.2,20.58,12.52,41.13,18.81,61.68,.08,.25,.18,.49,.27,.74,1.06-.33,.95-1.34,1.2-2.06,5.15-14.84,10.24-29.7,15.37-44.55,1.93-5.6,3.98-11.16,5.81-16.79,.53-1.62,1.29-2.08,2.92-2.04,4.52,.11,9.04,.15,13.56-.01,2-.07,2.86,.59,3.52,2.47,7.13,20.18,14.35,40.33,21.56,60.48,.29,.82,.38,1.75,1.38,2.62Z"/><path class="cls-1" d="M548.71,340.99c-24.33-.29-44.2-9.53-58.39-29.63-9.6-13.6-12.45-29.14-11.49-45.41,1.4-23.65,12.18-42.08,32-55.1,12.84-8.43,27.14-11.61,42.34-10.87,17.76,.87,33.68,6.55,47.06,18.58,2.75,2.47,5.24,5.18,7.5,8.11,.68,.88,1.1,1.49,.03,2.5-5.47,5.22-10.89,10.48-16.24,15.83-1.42,1.42-1.82,.13-2.48-.61-7.38-8.33-16.1-14.42-27.14-17.01-28.46-6.66-54.21,13.68-54.65,42.83-.33,22.35,13.61,37.59,28.62,42.15,17.42,5.29,33.52,2.29,47.58-9.67,2.31-1.96,4.39-4.21,6.38-6.51,1.01-1.16,1.52-1.08,2.55-.12,5.28,4.88,10.57,9.75,15.98,14.49,1.42,1.24,1.22,2.01,.18,3.28-10.53,12.87-24.06,20.89-40.1,24.88-6.47,1.61-13.06,2.27-19.74,2.28Z"/><path class="cls-1" d="M701.49,327.59c-3.97,3.64-7.5,6.66-11.64,8.91-16.22,8.82-44.76,7.29-60.7-14.83-7.61-10.55-10.52-22.37-10.24-35.09,.37-17.2,7.04-31.36,20.97-41.85,15.48-11.66,43.38-13.84,59.96,3.87,.35,.37,.6,.95,1.65,.91,0-3.08,.09-6.16-.04-9.23-.07-1.71,.47-2.17,2.18-2.15,6.82,.1,13.65,.1,20.47,0,1.75-.03,2.14,.52,2.14,2.18-.04,32.24-.05,64.48,0,96.72,0,1.76-.57,2.14-2.22,2.12-6.73-.09-13.46-.12-20.19,.01-2.05,.04-2.47-.7-2.38-2.54,.14-2.79,.04-5.59,.04-9.04Zm-56.38-39.15c-.05,16.87,11.88,29.28,28.18,29.33,16.25,.04,28.48-12.46,28.5-29.11,.02-16.53-12.05-28.99-28.2-29.12-16.51-.13-28.44,11.98-28.49,28.91Z"/><path class="cls-1" d="M1019.11,235.4c21.78,.2,38.28,8.46,48.55,26.59,16.97,29.97,2.64,71.74-36.53,78.69-15.82,2.81-31.1,.53-44.32-9.57-15.72-12.01-21.98-28.18-20.63-47.67,1.43-20.71,16.87-40,36.86-45.63,2.74-.77,5.54-1.38,8.35-1.78,2.91-.42,5.87-.49,7.72-.63Zm.84,81.97c15.56,.27,28.07-12.13,28.33-28.08,.27-16.59-11.44-29.06-27.73-29.53-15.38-.44-28.12,11.99-28.37,27.7-.27,17.24,11.22,29.63,27.76,29.91Z"/><path class="cls-1" d="M843.75,285.1c0-7.55-.06-15.11,.04-22.66,.03-1.95-.56-2.52-2.48-2.46-4.05,.14-8.11,0-12.17,.07-1.4,.03-1.96-.35-1.94-1.84,.07-6.08,.07-12.16,0-18.24-.02-1.5,.53-1.85,1.93-1.83,4.15,.08,8.3-.09,12.44,.08,2.02,.08,2.41-.61,2.39-2.48-.09-10.22,.03-20.45-.1-30.67-.03-2.27,.7-2.71,2.78-2.68,7.01,.12,14.01,.11,21.02,0,1.84-.03,2.29,.55,2.27,2.34-.08,10.32,.03,20.63-.1,30.95-.03,2.11,.57,2.57,2.6,2.54,9.4-.11,18.81,0,28.21-.09,1.96-.02,2.74,.32,2.68,2.52-.17,5.71-.14,11.42-.01,17.13,.04,1.89-.61,2.3-2.37,2.29-9.59-.07-19.18,0-28.77-.07-1.73-.01-2.35,.35-2.34,2.24,.09,13.08,.06,26.16,.04,39.24,0,2.05,.32,4.05,.79,6.01,1.92,7.96,8.48,11.67,17.55,10.02,3.92-.71,7.65-2.03,11.15-3.9,1.39-.75,1.95-.66,2.5,.87,2.04,5.61,4.09,11.22,6.34,16.74,.71,1.74,.17,2.46-1.23,3.24-6.02,3.33-12.4,5.6-19.23,6.44-5.87,.72-11.79,.88-17.63-.2-14.17-2.63-22.08-11.54-25.06-25.28-.94-4.34-1.34-8.72-1.33-13.16,.01-5.71,0-11.42,0-17.13h0Z"/><path class="cls-1" d="M925.26,268.65c0-22.39,.06-44.78-.07-67.17-.02-2.77,.77-3.3,3.35-3.22,6.73,.19,13.47,.13,20.2,.02,1.94-.03,2.66,.28,2.66,2.49-.07,45.33-.06,90.67,0,136,0,1.97-.58,2.46-2.48,2.42-7.01-.12-14.02-.17-21.03-.01-2.31,.05-2.67-.76-2.66-2.81,.07-22.57,.04-45.15,.04-67.72Z"/><path class="cls-1" d="M775.61,250.64c.49-.73,.97-1.48,1.49-2.2,6.99-9.84,16.65-13.71,28.5-12.79,2.68,.21,5.28,.71,7.86,1.38,1.25,.32,1.77,.89,1.63,2.3-.7,6.96-1.33,13.93-1.91,20.89-.14,1.66-.36,2.38-2.41,1.76-4.81-1.43-9.81-1.87-14.77-1.02-10.47,1.79-17,8.94-19.05,20.49-.58,3.28-.82,6.57-.82,9.89,0,15.01-.04,30.02,.05,45.03,.01,2.12-.47,2.83-2.72,2.79-7.09-.16-14.2-.1-21.29-.02-1.65,.02-2.22-.39-2.22-2.14,.05-32.23,.05-64.47,0-96.7,0-1.71,.47-2.19,2.18-2.17,6.91,.09,13.83,.09,20.74,0,1.7-.02,2.25,.45,2.2,2.16-.12,3.4-.03,6.8-.03,10.2,.2,.05,.4,.1,.59,.16Z"/><path class="cls-2" d="M538.39,433.35c3.85-3.77,8.12-5.16,13.17-4.25,1.98,.36,3.91,.99,5.13,2.5,1.83,2.26,3.01,2.3,5.24,.23,4.05-3.74,9.09-3.89,14-1.94,5.16,2.05,7.62,6.47,7.87,11.73,.34,7.02-.04,14.08,.1,21.11,.06,2.81-1.69,2.33-3.35,2.39-1.68,.06-3.02,.13-2.96-2.35,.16-6.31,.07-12.62,.05-18.93-.02-5.54-2.42-8.64-6.9-8.97-5.3-.39-8.88,2.23-9.43,7.83-.52,5.29-.21,10.66-.26,15.99-.01,1.21-.15,2.45,.03,3.64,.41,2.77-1.23,2.78-3.26,2.83-2.12,.06-3-.41-2.93-2.79,.18-6.06,.07-12.14,.06-18.2,0-6.02-2.49-9.19-7.29-9.34-5.44-.17-9.29,3.47-9.46,9.31-.17,5.94-.13,11.9,.02,17.84,.06,2.35-.6,3.15-3.03,3.09-2.23-.06-3.19-.45-3.15-2.99,.15-9.59,.04-19.18,.08-28.76,0-1.64-.8-3.75,2.39-3.65,2.49,.08,4.43,.14,3.87,3.69Z"/><path class="cls-2" d="M1128.2,459.96c0,5.94-.14,11.1,.06,16.25,.1,2.61-.81,3.21-3.3,3.24-2.57,.03-2.94-.98-2.93-3.2,.08-13.95-.02-27.9,.13-41.85,.02-1.54-1.8-4.31,2.04-4.62,3.34-.27,4.91,.71,4.13,4.86,5.5-5.53,11.68-6.86,18.56-4.94,4.29,1.2,7.42,3.95,9.78,7.68,4.98,7.87,3.47,18.38-3.56,24.46-6.9,5.97-15.92,5.53-24.9-1.88Zm12.64,.05c7.21-.02,12.6-5.46,12.58-12.7-.01-7.21-5.47-12.63-12.67-12.59-7.23,.03-12.58,5.44-12.57,12.7,0,7.24,5.4,12.61,12.66,12.59Z"/><path class="cls-2" d="M780.19,456.31c2.61-8.22,5.13-15.79,7.38-23.43,.69-2.33,1.59-3.23,4.18-3.28,2.84-.06,3.38,1.45,4.01,3.54,2.22,7.39,4.54,14.75,6.86,22.22,1.61-.95,1.45-2.48,1.81-3.67,1.88-6.27,3.79-12.54,5.32-18.9,.69-2.86,2.21-3.24,4.66-3.11,1.81,.09,1.96,.75,1.51,2.27-3.08,10.34-6.17,20.68-9.1,31.06-.63,2.23-2.08,1.99-3.63,1.96-1.62-.03-3.25,.43-3.96-2.01-1.93-6.63-4.16-13.18-6.31-19.74-.36-1.09-.41-2.35-1.84-3.52-1.53,4.81-2.97,9.36-4.41,13.9-.81,2.54-1.62,5.08-2.46,7.61-1.24,3.72-2.83,4.53-6.65,3.78-1.87-.37-1.69-1.9-2.03-3.03-2.92-9.63-5.79-19.27-8.55-28.95-.27-.95-1.98-2.85,.25-3.1,1.87-.21,4.74-1.71,5.74,1.8,1.98,6.97,4.01,13.92,6.04,20.88,.3,1.02,.65,2.03,1.19,3.72Z"/><path class="cls-2" d="M705.66,450.14c-4.01,0-8.03,.09-12.04-.03-2.71-.08-2.79,1.04-1.84,3.07,3.36,7.19,14.32,9.54,20.28,3.89,2.76-2.62,4.33-.8,6.14,.45,1.72,1.19-.15,2.08-.79,2.8-6.02,6.66-18.13,7.54-25.72,1.95-7.94-5.84-9.57-17.67-3.61-26.13,5.5-7.8,17.06-9.89,24.99-4.26,5.41,3.84,7.97,9.3,7.76,16.01-.05,1.7-.65,2.32-2.39,2.28-4.25-.1-8.51-.03-12.77-.03Zm-3.33-5.37c3.03,0,6.06-.11,9.09,.03,3.09,.15,3.19-1.17,2.11-3.49-2.13-4.56-6.23-6.98-11.45-6.65-5.28,.34-9.24,3.25-10.83,7.73-.64,1.79-.26,2.43,1.64,2.39,3.15-.07,6.3-.02,9.45-.01Z"/><path class="cls-2" d="M850.99,434.27c1.44-1.46-.7-4.01,1.93-4.76,3.41-.97,4.86,.12,4.86,3.7,0,9.34,0,18.69,0,28.03,0,1.85,.59,3.77-2.69,3.76-2.96-.01-3.92-.96-3.55-3.71,.04-.31-.18-.66-.29-1-10.48,7.32-19.84,7.15-26.22-.43-6.75-8.02-6.42-18.61,.82-26.03,6.51-6.67,16.31-6.54,25.14,.45Zm.6,13.18c.04-7.31-5.21-12.67-12.48-12.73-7.21-.06-12.65,5.33-12.69,12.56-.04,7.29,5.28,12.7,12.51,12.72,7.29,.02,12.62-5.27,12.66-12.56Z"/><path class="cls-2" d="M621.34,434.13c.77-.48,.63-1.29,.54-1.95-.42-2.87,1.44-2.62,3.36-2.75,2.38-.16,2.79,.91,2.77,3-.09,9.7-.05,19.41-.03,29.11,0,1.84,.38,3.53-2.63,3.44-2.57-.08-3.94-.5-3.49-3.35,.05-.31-.19-.67-.52-1.71-4.69,5.26-10.47,6.75-16.89,5.41-4.17-.87-7.53-3.19-10.09-6.67-5.69-7.72-5.11-17.53,1.52-24.62,6.33-6.76,15.28-6.73,25.46,.08Zm-12.29,25.88c7.28,.04,12.76-5.31,12.77-12.49,.01-7.32-5.26-12.73-12.48-12.8-7.22-.07-12.72,5.32-12.78,12.52-.07,7.25,5.29,12.73,12.49,12.77Z"/><path class="cls-2" d="M1045.3,434.03c3.16-2.96,5.99-4.74,9.68-5.12,8.59-.87,15.15,4.36,15.47,13.01,.25,6.91-.05,13.83,.08,20.75,.06,2.86-1.77,2.2-3.38,2.33-1.9,.16-2.86-.26-2.81-2.51,.15-5.94,.06-11.89,.05-17.84-.01-6.34-2.74-9.64-8.13-9.89-6.22-.28-10.44,3.09-10.8,9.22-.34,5.81-.23,11.65-.11,17.47,.05,2.48-.29,3.69-3.27,3.65-2.83-.04-3.07-1.23-3.06-3.51,.08-14.32,.1-28.64-.02-42.96-.02-2.61,.83-3.24,3.31-3.25,2.45,0,3.11,.79,3.04,3.13-.16,4.91-.05,9.83-.05,15.52Z"/><path class="cls-2" d="M944.52,447.28c.04-10.36,8.06-18.4,18.47-18.52,10.52-.12,18.97,8.31,18.91,18.87-.06,10.18-8.35,18.29-18.71,18.32-10.53,.03-18.71-8.14-18.67-18.67Zm31.12-.08c-.06-7.14-5.37-12.35-12.56-12.32-7.05,.03-12.5,5.47-12.49,12.48,0,7.03,5.43,12.48,12.46,12.52,7.3,.05,12.65-5.35,12.59-12.68Z"/><path class="cls-2" d="M1114.67,447.33c-.02,10.41-8.29,18.59-18.83,18.61-10.5,.02-18.71-8.22-18.65-18.72,.06-10.28,8.27-18.43,18.59-18.45,10.49-.02,18.9,8.25,18.88,18.57Zm-6.23,.18c.05-7.32-5.23-12.65-12.52-12.64-7.03,.01-12.47,5.37-12.53,12.35-.06,7.15,5.46,12.69,12.6,12.65,7.14-.04,12.4-5.26,12.44-12.37Z"/><path class="cls-2" d="M863.61,430.13q5.84-.72,8.08,4.39c3.16,7.19,6.33,14.37,9.81,22.25,3.3-8.54,6.31-16.31,9.32-24.09,1-2.58,3.81-3.84,6.34-2.77,1.98,.83,.45,2.07,.11,2.97-4.52,11.9-9.11,23.77-13.68,35.65-1.02,2.66-2.75,4.83-4.73,6.84-1.93,1.96-4.2,3.34-6.98,3.56-1.31,.11-3.36,1.65-3.6-1.16-.16-1.86-.84-3.83,2.43-4.51,6-1.25,8.44-6.83,5.96-12.47-3.99-9.09-8.01-18.17-11.98-27.28-.47-1.08-1.26-2.09-1.08-3.39Z"/><path class="cls-2" d="M512.25,466.02c-5.64-.03-10.04-1.44-13.2-5.49-.7-.89-2.42-2.18-.39-3.18,1.47-.72,2.89-3.67,5.08-.69,2.65,3.6,6.46,3.94,10.49,3.25,2.18-.37,3.91-1.44,4.28-3.83,.36-2.35-1.15-3.65-3.01-4.44-2.45-1.03-4.98-1.89-7.53-2.67-7.07-2.17-9.84-5.45-9.2-11.05,.55-4.86,5.34-8.67,11.63-9.05,4.72-.28,8.88,1.13,12.07,4.78,.7,.8,2.21,1.99,.46,2.91-1.4,.73-2.73,3.42-4.83,.95-2.62-3.09-5.96-3.48-9.6-2.53-1.88,.49-3.29,1.64-3.5,3.72-.2,1.99,1.05,3.13,2.64,3.96,2.6,1.35,5.44,2.04,8.22,2.88,6.34,1.9,9.49,5.83,8.93,11.07-.51,4.81-4.77,8.46-10.7,9.18-.84,.1-1.68,.22-1.85,.24Z"/><path class="cls-2" d="M1018.47,466.12c-4.72-.2-8.85-1.66-11.9-5.42-.82-1.01-2.55-2.38-.34-3.47,1.43-.71,2.77-3.58,4.99-.5,2.8,3.88,7,3.98,11.22,2.97,1.85-.44,3.23-1.66,3.45-3.78,.21-2-.95-3.19-2.51-4.06-2.78-1.56-5.89-2.21-8.91-3.13-6.13-1.88-8.95-5.49-8.4-10.63,.49-4.61,4.82-8.36,10.42-9.08,5.14-.65,9.66,.58,13.19,4.51,.74,.83,2.56,2,.54,3.07-1.37,.73-2.69,3.39-4.82,.83-2.7-3.24-6.24-3.47-9.96-2.32-1.68,.52-2.95,1.68-3.08,3.66-.11,1.84,.94,2.93,2.41,3.73,2.68,1.48,5.65,2.17,8.55,3.04,6.18,1.85,9.21,5.56,8.84,10.77-.35,4.93-4.69,8.74-10.81,9.47-.96,.11-1.93,.22-2.89,.32Z"/><path class="cls-2" d="M665.23,447.02c0-1.82,0-3.64,0-5.46,0-5.24,.01-5.36-5.2-5.84-2.11-.19-1.96-1.44-1.85-2.75,.1-1.26-.81-3.17,1.68-3.23,.61-.01,1.23-.1,1.82,0,2.9,.46,3.99-.8,3.55-3.6-.51-3.2,.32-5.33,4.02-5.76,1.55-.18,2.36-.23,2.18,1.58-.01,.12,0,.24,0,.36,.18,2.28-.93,5.05,.52,6.72,1.52,1.75,4.36,.66,6.6,.63,2.51-.04,2.31,1.43,2.32,3.06,.01,1.68,.07,2.93-2.38,3.01-7.07,.21-7.06,.34-7.06,7.3,0,3.52-.02,7.04,0,10.56,.03,4.99,1.04,6.03,5.92,6.05,1.79,0,3.55-.57,3.6,2.48,.05,2.85-1.38,3.11-3.52,3.25-8.43,.54-12.17-2.93-12.21-11.43-.01-2.31,0-4.61,0-6.92Z"/><path class="cls-2" d="M936.82,465.4c-8.15,.09-11.5-3.18-11.58-11.19-.05-4.85-.19-9.71,.06-14.55,.15-3.06-.54-4.65-3.91-4-2.63,.5-3.19-.76-3.2-3.21-.01-2.37,.85-3.08,2.97-2.71,3.47,.6,4.46-1.01,4.14-4.23-.13-1.32-.79-3.17,.84-3.97,1.48-.73,3.35-1.49,4.81-1.17,1.16,.26,.37,2.34,.49,3.6,.11,1.2,.09,2.43,.02,3.64-.08,1.55,.56,2.21,2.12,2.13,1.33-.07,2.69,.14,4-.04,2.77-.37,3.62,.73,3.41,3.44-.14,1.77-.46,2.51-2.45,2.58-7.08,.27-7.07,.36-7.07,7.6,0,3.64-.03,7.28,0,10.92,.05,4.21,1.2,5.3,5.44,5.48,1.79,.08,4.13-1.2,4.13,2.57,0,3.74-2.5,2.72-4.22,3.13Z"/><path class="cls-1" d="M1239.17,163.72c-.02,10-8.06,17.98-18.11,17.98-10.14,0-18.04-8.06-17.99-18.34,.05-9.92,8.32-18.02,18.24-17.86,10.09,.17,17.89,8.12,17.86,18.22Zm-2.05-.1c.02-9.06-7.07-16.24-16-16.23-8.91,.02-16.09,7.21-16.14,16.19-.06,9.01,7.03,16.17,16.05,16.21,8.87,.04,16.08-7.2,16.09-16.18Z"/><path class="cls-2" d="M644.01,433.78c2.56-2.25,4.92-4.12,8.09-4.46,1.15-.12,2.79-.55,2.52,1.43-.23,1.65,1.44,4.03-1.57,4.83-7.79,2.08-9.44,4.19-9.48,12.13-.02,4.86-.18,9.72,.06,14.56,.14,2.91-1.48,2.61-3.39,2.75-2.28,.16-2.87-.66-2.84-2.88,.12-9.34-.03-18.69,.14-28.04,.03-1.46-1.67-4.1,1.92-4.38,2.89-.22,4.81,.28,4.55,4.04Z"/><path class="cls-2" d="M734.4,433.93c2.42-2,4.58-4.21,7.72-4.55,1.17-.12,3.05-.94,2.85,1.37-.14,1.65,1.41,4.03-1.58,4.83-7.68,2.06-9.46,4.34-9.5,12.17-.02,4.86-.14,9.72,.05,14.56,.1,2.49-1.08,2.7-3.06,2.7-1.98,0-3.09-.2-3.05-2.69,.14-9.83,.08-19.66,.03-29.5,0-1.89,.03-3.24,2.61-3.14,2.21,.09,3.9,.15,3.47,3.02-.04,.29,.23,.62,.46,1.21Z"/><path class="cls-1" d="M1221.82,153.48c1.57-.08,3.29,.26,4.8,1.22,1.04,.66,2.67,1.24,2.51,2.6-.15,1.22-1.84,1.64-2.78,2.51-.83,.77-1.28-.12-1.84-.49-2.4-1.59-4.88-1.42-6.45,.43-1.62,1.91-1.61,5.3,.02,7.15,1.58,1.79,4.31,2.08,6.47,.31,2.41-1.98,3.34,.61,4.44,1.49,1.33,1.06-.56,1.77-1.21,2.33-3.25,2.81-8.7,2.94-12.37,.44-3.31-2.25-4.97-7.19-3.71-11.05,1.39-4.27,5.21-6.96,10.13-6.93Z"/></svg>