<svg width="140" height="28" viewBox="0 0 140 28" fill="none" xmlns="http://www.w3.org/2000/svg">
<path d="M13.985 2.57905C16.0113 1.0921 18.1373 0.0587932 20.5789 0.462034C22.5637 0.80946 24.368 1.84259 25.684 3.38526C27 4.92793 27.7463 6.88462 27.7956 8.92168C27.9119 14.0882 27.8538 19.2547 27.7956 24.4212C27.7956 26.3114 26.6164 27.5631 25.0302 27.5631C23.444 27.5631 22.273 26.3198 22.2564 24.4296C22.2564 19.6496 22.2564 14.8611 22.2564 10.0726C22.2564 7.80437 21.2765 6.52744 19.5574 6.49384C17.8383 6.46023 16.7504 7.77917 16.7421 10.1398C16.7421 14.7351 16.7421 19.3303 16.7421 23.9172C16.7421 26.2694 15.6708 27.6135 13.8936 27.5547C12.1164 27.4959 11.2195 26.2106 11.2112 23.9424C11.2112 19.4143 11.2112 14.8779 11.2112 10.3498C11.2112 7.78757 10.2562 6.46863 8.42084 6.49384C6.58551 6.51904 5.73013 7.82117 5.72183 10.4422C5.72183 14.9703 5.72183 19.4983 5.72183 24.0348C5.72183 26.261 4.69205 27.5463 2.96468 27.5631C1.23731 27.5799 0.174314 26.2694 0.166009 24.06C0.166009 19.4731 0.240751 14.8779 0.166009 10.2826C0.0580488 6.44343 1.32036 3.40233 4.58409 1.48694C7.84782 -0.428455 10.9621 0.260413 13.985 2.57905Z" fill="url(#paint0_linear_910_7022)"/>
<path d="M37.3709 19.8092C38.8159 22.0354 40.2776 22.6151 42.3537 21.9514C42.7607 21.817 43.1842 21.6238 43.5579 21.5145C44.1758 21.2833 44.8591 21.309 45.4583 21.5861C46.0575 21.8632 46.5238 22.3691 46.7552 22.9931C47.4113 24.3792 46.913 25.5133 45.6839 26.3534C42.9018 28.2436 38.0851 27.916 35.1204 25.6142C33.3936 24.348 32.1232 22.5457 31.5025 20.4817C30.8819 18.4176 30.945 16.205 31.6822 14.1806C33.3432 9.9802 37.4955 7.18272 41.5731 7.54395C43.7901 7.77913 45.8764 8.71882 47.5325 10.2281C49.1887 11.7374 50.3295 13.7388 50.7913 15.9448C51.3311 18.7507 50.4259 19.8428 47.5275 19.8512C44.2306 19.8176 40.9336 19.8092 37.3709 19.8092ZM37.3709 15.0375H44.5379C42.362 12.1392 39.6132 12.1224 37.3709 15.0375Z" fill="url(#paint1_linear_910_7022)"/>
<path d="M107.52 27.5295C104.909 27.5609 102.393 26.5423 100.524 24.6977C98.6557 22.853 97.5875 20.3332 97.5547 17.6922V17.5409C97.6057 14.8835 98.672 12.3492 100.53 10.4697C102.388 8.59023 104.893 7.51156 107.52 7.45994C112.727 7.39274 117.353 12.072 117.386 17.4569C117.395 18.772 117.148 20.0759 116.658 21.2942C116.169 22.5125 115.447 23.6214 114.534 24.5575C113.621 25.4936 112.534 26.2387 111.337 26.75C110.139 27.2614 108.853 27.5292 107.553 27.5379L107.52 27.5295ZM107.379 12.9373C106.204 12.9571 105.083 13.4441 104.259 14.293C103.436 15.1418 102.975 16.2844 102.978 17.4737V17.6418C103.007 18.8592 103.499 20.0184 104.351 20.8787C105.203 21.7391 106.35 22.2345 107.553 22.2622C108.75 22.2164 109.884 21.7146 110.73 20.8576C111.576 20.0006 112.07 18.8518 112.113 17.6418C112.097 16.391 111.592 15.1976 110.708 14.3234C109.823 13.4493 108.632 12.9658 107.396 12.9793L107.379 12.9373Z" fill="url(#paint2_linear_910_7022)"/>
<path d="M139.867 17.5913C139.843 20.2569 138.776 22.8042 136.9 24.6761C135.024 26.548 132.491 27.592 129.856 27.5798C127.221 27.5676 124.698 26.5001 122.839 24.6109C120.98 22.7217 119.936 20.1646 119.936 17.4989C119.936 14.8333 120.98 12.2761 122.839 10.3869C124.698 8.49771 127.221 7.43023 129.856 7.41801C132.491 7.4058 135.024 8.44984 136.9 10.3217C138.776 12.1936 139.843 14.741 139.867 17.4065V17.5913ZM125.4 17.5913C125.402 18.5105 125.673 19.4085 126.18 20.1718C126.686 20.935 127.405 21.5291 128.245 21.8789C129.085 22.2288 130.009 22.3186 130.9 22.137C131.791 21.9555 132.608 21.5107 133.249 20.8589C133.89 20.2072 134.325 19.3779 134.5 18.4758C134.674 17.5738 134.581 16.6396 134.23 15.7915C133.88 14.9434 133.289 14.2195 132.531 13.7114C131.774 13.2034 130.885 12.9339 129.976 12.9373H129.877C128.68 12.9461 127.535 13.435 126.695 14.2966C125.854 15.1581 125.385 16.3219 125.392 17.5325V17.6417L125.4 17.5913Z" fill="url(#paint3_linear_910_7022)"/>
<path d="M83.1878 6.72063C85.6792 6.72063 87.7802 6.72063 89.9145 6.72063C91.8246 6.72063 92.9208 7.82954 92.8959 9.55171C92.871 11.2739 91.7001 12.3324 89.8315 12.3576C87.6972 12.3576 85.5546 12.3576 83.2542 12.3576C83.1462 14.1705 83.1462 15.9884 83.2542 17.8013C83.3604 18.6175 83.675 19.3917 84.167 20.0474C84.659 20.7032 85.3114 21.218 86.0599 21.5411C86.8085 21.8641 87.6273 21.9843 88.4357 21.8898C89.2442 21.7953 90.0143 21.4893 90.6703 21.0021C91.5007 20.456 92.6302 19.8763 93.4523 20.0696C93.9386 20.2298 94.3792 20.5068 94.7365 20.877C95.0937 21.2471 95.3569 21.6994 95.5036 22.195C95.5278 22.7346 95.439 23.2732 95.2429 23.7756C95.0468 24.278 94.7479 24.7328 94.3658 25.1101C91.2516 27.9411 87.6142 28.2772 83.8688 26.6894C82.0982 26.0112 80.5686 24.813 79.4764 23.2486C78.3843 21.6843 77.7796 19.8253 77.7399 17.9105C77.4908 13.0213 77.6403 8.10677 77.6818 3.20908C77.6661 2.47944 77.9354 1.77298 78.4314 1.24296C78.9274 0.712952 79.6099 0.40215 80.331 0.377996C81.055 0.376614 81.7522 0.654978 82.2801 1.1562C82.808 1.65742 83.1267 2.34366 83.1712 3.07467C83.2708 4.20038 83.1878 5.34289 83.1878 6.72063Z" fill="url(#paint4_linear_910_7022)"/>
<path d="M65.5154 12.0216C65.5154 9.50135 65.5154 6.9307 65.5154 4.37684C65.5154 1.9658 66.487 0.613267 68.1978 0.571263C69.9085 0.529258 70.93 1.88179 70.9383 4.28443C70.9383 9.32494 70.9383 14.3654 70.9383 19.4059C70.9383 21.0273 71.3619 22.0522 73.1391 22.2454C73.4715 22.2592 73.7979 22.3403 74.0988 22.4838C74.3998 22.6272 74.6693 22.8303 74.8915 23.0808C75.1137 23.3314 75.284 23.6245 75.3923 23.9427C75.5007 24.2609 75.545 24.5979 75.5225 24.9337C75.5266 24.9952 75.5266 25.057 75.5225 25.1185C75.5225 26.5887 74.227 27.5968 72.5826 27.6388C68.804 27.6892 65.6898 24.4044 65.5569 20.078C65.4739 17.4065 65.5569 14.7267 65.5569 12.0552L65.5154 12.0216Z" fill="url(#paint5_linear_910_7022)"/>
<path d="M58.9131 11.7612C58.9131 14.2814 58.9131 16.8521 58.9131 19.4059C58.9131 21.0105 59.345 22.0438 61.1388 22.2286C61.4734 22.2412 61.8021 22.322 62.1053 22.466C62.4084 22.6101 62.6797 22.8145 62.9029 23.067C63.1262 23.3195 63.2969 23.6149 63.4047 23.9357C63.5125 24.2564 63.5553 24.5958 63.5305 24.9337C63.535 24.9896 63.535 25.0458 63.5305 25.1017C63.4588 25.8299 63.1087 26.501 62.5549 26.9718C62.001 27.4427 61.2872 27.676 60.5657 27.622C58.777 27.5846 57.0682 26.8655 55.781 25.6086C54.4938 24.3516 53.7231 22.6494 53.6231 20.8425C53.4819 15.0459 53.54 9.24931 53.6231 3.46113C53.5798 2.74082 53.8202 2.03248 54.2917 1.49096C54.7633 0.94943 55.4275 0.618765 56.1394 0.571244H56.1975C56.54 0.561171 56.8811 0.619471 57.2013 0.742811C57.5214 0.86615 57.8145 1.05211 58.0636 1.29007C58.3127 1.52802 58.513 1.81331 58.6531 2.12961C58.7931 2.44592 58.8702 2.78705 58.8799 3.1335C58.884 3.20625 58.884 3.27918 58.8799 3.35192C58.9629 6.1494 58.8799 8.95528 58.8799 11.7528L58.9131 11.7612Z" fill="url(#paint6_linear_910_7022)"/>
<defs>
<linearGradient id="paint0_linear_910_7022" x1="14.0016" y1="24.6313" x2="14.0016" y2="0.22681" gradientUnits="userSpaceOnUse">
<stop stop-color="#0CB27C"/>
<stop offset="1" stop-color="#1DCD6E"/>
</linearGradient>
<linearGradient id="paint1_linear_910_7022" x1="1011.77" y1="595.923" x2="1011.77" y2="12.9311" gradientUnits="userSpaceOnUse">
<stop stop-color="#0CB27C"/>
<stop offset="1" stop-color="#1DCD6E"/>
</linearGradient>
<linearGradient id="paint2_linear_910_7022" x1="2664.18" y1="596.167" x2="2664.18" y2="12.8805" gradientUnits="userSpaceOnUse">
<stop stop-color="#0CB27C"/>
<stop offset="1" stop-color="#1DCD6E"/>
</linearGradient>
<linearGradient id="paint3_linear_910_7022" x1="3238.51" y1="598.568" x2="3238.51" y2="12.8616" gradientUnits="userSpaceOnUse">
<stop stop-color="#0CB27C"/>
<stop offset="1" stop-color="#1DCD6E"/>
</linearGradient>
<linearGradient id="paint4_linear_910_7022" x1="1943.63" y1="799.565" x2="1943.63" y2="7.73745" gradientUnits="userSpaceOnUse">
<stop stop-color="#0CB27C"/>
<stop offset="1" stop-color="#1DCD6E"/>
</linearGradient>
<linearGradient id="paint5_linear_910_7022" x1="915.602" y1="794.234" x2="915.602" y2="7.87891" gradientUnits="userSpaceOnUse">
<stop stop-color="#0CB27C"/>
<stop offset="1" stop-color="#1DCD6E"/>
</linearGradient>
<linearGradient id="paint6_linear_910_7022" x1="758.22" y1="793.954" x2="758.22" y2="7.87615" gradientUnits="userSpaceOnUse">
<stop stop-color="#0CB27C"/>
<stop offset="1" stop-color="#1DCD6E"/>
</linearGradient>
</defs>
</svg>
