<svg width="222" height="87" viewBox="0 0 222 87" fill="none" xmlns="http://www.w3.org/2000/svg">
<g clip-path="url(#clip0)">
<path d="M209.7 85.7H11.7C5.7 85.7 0.800003 80.8 0.800003 74.8V11.7C0.800003 5.7 5.7 0.800003 11.7 0.800003H209.7C215.7 0.800003 220.6 5.7 220.6 11.7V74.8C220.6 80.8 215.7 85.7 209.7 85.7Z" fill="white" stroke="#EAEAEA" stroke-width="1.625" stroke-miterlimit="10"/>
<path d="M64.7 40.9C63.1 40.9 61.8 42.2 61.8 43.8C61.8 54.2 53.3 62.7 42.9 62.7C32.4 62.7 24 54.2 24 43.8V36.4H35.8C37.4 36.4 38.7 35.1 38.7 33.5C38.7 31.9 37.4 30.6 35.8 30.6H24V21.1C24 19.5 22.7 18.2 21.1 18.2C19.5 18.2 18.2 19.5 18.2 21.1V43.8C18.2 57.4 29.3 68.5 42.9 68.5C56.5 68.5 67.6 57.4 67.6 43.8C67.6 42.2 66.3 40.9 64.7 40.9Z" fill="#336366"/>
<path d="M47 36.5C47.8 36.5 48.5 36.2 49.1 35.6C49.6 35.1 50 34.3 50 33.5C50 32.7 49.7 32 49.1 31.4C49 31.3 48.8 31.1 48.7 31C48.5 30.9 48.4 30.8 48.2 30.7C48 30.6 47.8 30.6 47.7 30.5C47.3 30.4 46.9 30.4 46.6 30.5C46.4 30.5 46.2 30.6 46.1 30.7C45.9 30.8 45.8 30.9 45.6 31C45.4 31.1 45.3 31.2 45.2 31.4C44.4 32 44 32.8 44 33.5C44 34.3 44.3 35 44.9 35.6C45.4 36.2 46.2 36.5 47 36.5Z" fill="#336366"/>
<path d="M58.1 36.5C58.9 36.5 59.6 36.2 60.2 35.6C60.7 35.1 61.1 34.3 61.1 33.5C61.1 32.7 60.8 32 60.2 31.4C60.1 31.3 59.9 31.1 59.8 31C59.6 30.9 59.5 30.8 59.3 30.7C59.1 30.6 58.9 30.6 58.8 30.5C58.4 30.4 58 30.4 57.7 30.5C57.5 30.5 57.3 30.6 57.2 30.7C57 30.8 56.9 30.9 56.7 31C56.5 31.1 56.4 31.2 56.3 31.4C55.8 31.9 55.4 32.7 55.4 33.5C55.4 34.3 55.7 35 56.3 35.6C56.6 36.2 57.4 36.5 58.1 36.5Z" fill="#336366"/>
<path d="M94.4 48.4C93.5 48.4 92.8 49.1 92.8 50C92.8 53.3 90.3 55.9 87.2 55.9C84.1 55.9 81.6 53.2 81.6 50V39.1H91.5C92.4 39.1 93.1 38.4 93.1 37.5C93.1 36.6 92.4 35.9 91.5 35.9H81.6V27.7C81.6 26.8 80.9 26.1 80 26.1C79.1 26.1 78.4 26.8 78.4 27.7V49.8C78.4 54.8 82.3 58.9 87.1 58.9C91.9 58.9 95.8 54.8 95.8 49.8C96 49.1 95.3 48.4 94.4 48.4Z" fill="#336366"/>
<path d="M186.3 38C186.8 37.3 186.7 36.4 186.1 35.8C184.6 34.5 182.7 33.9 180.7 33.9C175.9 33.9 172 38 172 43V57.4C172 58.3 172.7 59 173.6 59C174.5 59 175.2 58.3 175.2 57.4V42.9C175.2 39.6 177.7 37 180.8 37C182 37 183.2 37.4 184.2 38.2C184.8 38.7 185.8 38.6 186.3 38Z" fill="#336366"/>
<path d="M141.5 33.9C138.6 33.9 135.9 35.4 134.4 37.8C132.8 35.5 130.2 33.9 127.3 33.9C122.5 33.9 118.6 38 118.6 43V57.4C118.6 58.3 119.3 59 120.2 59C121.1 59 121.8 58.3 121.8 57.4V42.9C121.8 39.6 124.3 37 127.4 37C130.5 37 133 39.7 133 42.9V57.3C133 58.2 133.7 58.9 134.6 58.9C135.5 58.9 136.2 58.2 136.2 57.3V42.9C136.2 39.6 138.7 37 141.8 37C144.9 37 147.4 39.7 147.4 42.9V57.3C147.4 58.2 148.1 58.9 149 58.9C149.9 58.9 150.6 58.2 150.6 57.3V42.9C150.2 37.9 146.3 33.9 141.5 33.9Z" fill="#336366"/>
<path d="M107 33.9C105 33.9 103.2 34.6 101.6 35.8C100.9 36.3 100.8 37.3 101.4 38C101.9 38.7 102.9 38.8 103.6 38.2C104.6 37.4 105.7 37 107 37C107.2 37 107.4 37 107.5 37C107.6 37 107.6 37 107.7 37C107.8 37 107.9 37 108 37.1C108.1 37.1 108.1 37.1 108.2 37.1C108.3 37.1 108.4 37.2 108.5 37.2C108.6 37.2 108.6 37.2 108.7 37.3C108.8 37.3 108.9 37.4 109 37.4C109.1 37.4 109.1 37.5 109.2 37.5C109.3 37.5 109.4 37.6 109.5 37.7C109.6 37.7 109.6 37.8 109.7 37.8C109.8 37.9 109.9 37.9 110 38C110 38 110.1 38 110.1 38.1C110.2 38.2 110.4 38.3 110.5 38.4L110.6 38.5C110.7 38.6 110.8 38.7 110.9 38.8L111 38.9C111.1 39 111.1 39.1 111.2 39.2C111.2 39.3 111.3 39.3 111.3 39.4C111.4 39.5 111.4 39.6 111.5 39.7C111.5 39.8 111.6 39.8 111.6 39.9C111.7 40 111.7 40.1 111.8 40.2C111.8 40.3 111.9 40.3 111.9 40.4C112 40.5 112 40.6 112.1 40.8C112.1 40.8 112.1 40.9 112.2 40.9C112.3 41.1 112.3 41.2 112.4 41.4V41.5C112.4 41.6 112.5 41.7 112.5 41.9H106.7C102.1 41.9 98.4 45.6 98.4 50.2C98.4 55.2 102.3 59.3 107.1 59.3C109.3 59.3 111.3 58.6 112.7 57.8C112.7 58.6 113.4 59.3 114.3 59.3C115.2 59.3 115.9 58.6 115.9 57.7V55V49.3V42.9C115.7 37.9 111.8 33.9 107 33.9ZM101.4 49.9C101.4 47 103.7 44.7 106.6 44.7H112.6V49.2V53.6C111.7 54.3 109.6 55.8 107 55.8C103.9 55.9 101.4 53.2 101.4 49.9Z" fill="#336366"/>
<path d="M160.7 33.9C158.7 33.9 156.9 34.6 155.3 35.8C154.6 36.3 154.5 37.3 155.1 38C155.6 38.7 156.6 38.8 157.3 38.2C158.3 37.4 159.4 37 160.7 37C160.9 37 161.1 37 161.2 37C161.3 37 161.3 37 161.4 37C161.5 37 161.6 37 161.7 37.1C161.8 37.1 161.8 37.1 161.9 37.1C162 37.1 162.1 37.2 162.2 37.2C162.3 37.2 162.3 37.2 162.4 37.3C162.5 37.3 162.6 37.4 162.7 37.4C162.8 37.4 162.8 37.5 162.9 37.5C163 37.5 163.1 37.6 163.2 37.7C163.3 37.7 163.3 37.8 163.4 37.8C163.5 37.9 163.6 37.9 163.7 38C163.7 38 163.8 38 163.8 38.1C163.9 38.2 164.1 38.3 164.2 38.4L164.3 38.5C164.4 38.6 164.5 38.7 164.6 38.8L164.7 38.9C164.8 39 164.8 39.1 164.9 39.2C164.9 39.3 165 39.3 165 39.4C165.1 39.5 165.1 39.6 165.2 39.7C165.2 39.8 165.3 39.8 165.3 39.9C165.4 40 165.4 40.1 165.5 40.2C165.5 40.3 165.6 40.3 165.6 40.4C165.7 40.5 165.7 40.6 165.8 40.8C165.8 40.8 165.8 40.9 165.9 40.9C166 41.1 166 41.2 166.1 41.4V41.5C166.1 41.6 166.2 41.7 166.2 41.9H160.4C155.8 41.9 152.1 45.6 152.1 50.2C152.1 55.2 156 59.3 160.8 59.3C163 59.3 165 58.6 166.4 57.8C166.4 58.6 167.1 59.3 168 59.3C168.9 59.3 169.6 58.6 169.6 57.7V55V49.3V42.9C169.3 37.9 165.5 33.9 160.7 33.9ZM155.1 49.9C155.1 47 157.4 44.7 160.3 44.7H166.3V49.2V53.6C165.4 54.3 163.3 55.8 160.7 55.8C157.6 55.9 155.1 53.2 155.1 49.9Z" fill="#336366"/>
<path d="M194.5 33.9C192.5 33.9 190.7 34.6 189.1 35.8C188.4 36.3 188.3 37.3 188.9 38C189.4 38.7 190.4 38.8 191.1 38.2C192.1 37.4 193.2 37 194.5 37C194.7 37 194.9 37 195 37C195.1 37 195.1 37 195.2 37C195.3 37 195.4 37 195.5 37.1C195.6 37.1 195.6 37.1 195.7 37.1C195.8 37.1 195.9 37.2 196 37.2C196.1 37.2 196.1 37.2 196.2 37.3C196.3 37.3 196.4 37.4 196.5 37.4C196.6 37.4 196.6 37.5 196.7 37.5C196.8 37.5 196.9 37.6 197 37.7C197.1 37.7 197.1 37.8 197.2 37.8C197.3 37.9 197.4 37.9 197.5 38C197.5 38 197.6 38 197.6 38.1C197.7 38.2 197.9 38.3 198 38.4L198.1 38.5C198.2 38.6 198.3 38.7 198.4 38.8L198.5 38.9C198.6 39 198.6 39.1 198.7 39.2C198.7 39.3 198.8 39.3 198.8 39.4C198.9 39.5 198.9 39.6 199 39.7C199 39.8 199.1 39.8 199.1 39.9C199.2 40 199.2 40.1 199.3 40.2C199.3 40.3 199.4 40.3 199.4 40.4C199.5 40.5 199.5 40.6 199.6 40.7C199.6 40.7 199.6 40.8 199.7 40.8C199.8 41 199.8 41.1 199.9 41.3V41.4C199.9 41.5 200 41.6 200 41.8H194.2C189.6 41.8 185.9 45.5 185.9 50.1C185.9 55.1 189.8 59.2 194.6 59.2C196.8 59.2 198.8 58.5 200.2 57.7C200.2 58.5 200.9 59.2 201.8 59.2C202.7 59.2 203.4 58.5 203.4 57.6V55V49.3V42.9C203.2 37.9 199.3 33.9 194.5 33.9ZM188.9 49.9C188.9 47 191.2 44.7 194.1 44.7H200.1V49.2V53.6C199.2 54.3 197.1 55.8 194.5 55.8C191.4 55.9 188.9 53.2 188.9 49.9Z" fill="#336366"/>
<path d="M194.5 33.9C192.5 33.9 190.7 34.6 189.1 35.8C188.4 36.3 188.3 37.3 188.9 38C189.4 38.7 190.4 38.8 191.1 38.2C192.1 37.4 193.2 37 194.5 37C194.7 37 194.9 37 195 37C195.1 37 195.1 37 195.2 37C195.3 37 195.4 37 195.5 37.1C195.6 37.1 195.6 37.1 195.7 37.1C195.8 37.1 195.9 37.2 196 37.2C196.1 37.2 196.1 37.2 196.2 37.3C196.3 37.3 196.4 37.4 196.5 37.4C196.6 37.4 196.6 37.5 196.7 37.5C196.8 37.5 196.9 37.6 197 37.7C197.1 37.7 197.1 37.8 197.2 37.8C197.3 37.9 197.4 37.9 197.5 38C197.5 38 197.6 38 197.6 38.1C197.7 38.2 197.9 38.3 198 38.4L198.1 38.5C198.2 38.6 198.3 38.7 198.4 38.8L198.5 38.9C198.6 39 198.6 39.1 198.7 39.2C198.7 39.3 198.8 39.3 198.8 39.4C198.9 39.5 198.9 39.6 199 39.7C199 39.8 199.1 39.8 199.1 39.9C199.2 40 199.2 40.1 199.3 40.2C199.3 40.3 199.4 40.3 199.4 40.4C199.5 40.5 199.5 40.6 199.6 40.7C199.6 40.7 199.6 40.8 199.7 40.8C199.8 41 199.8 41.1 199.9 41.3V41.4C199.9 41.5 200 41.6 200 41.8H194.2C189.6 41.8 185.9 45.5 185.9 50.1C185.9 55.1 189.8 59.2 194.6 59.2C196.8 59.2 198.8 58.5 200.2 57.7C200.2 58.5 200.9 59.2 201.8 59.2C202.7 59.2 203.4 58.5 203.4 57.6V55V49.3V42.9C203.2 37.9 199.3 33.9 194.5 33.9ZM188.9 49.9C188.9 47 191.2 44.7 194.1 44.7H200.1V49.2V53.6C199.2 54.3 197.1 55.8 194.5 55.8C191.4 55.9 188.9 53.2 188.9 49.9Z" fill="#336366"/>
</g>
<defs>
<clipPath id="clip0">
<rect width="221.4" height="86.5" fill="white"/>
</clipPath>
</defs>
</svg>
